<svg xmlns="http://www.w3.org/2000/svg" xmlns:xlink="http://www.w3.org/1999/xlink" width="593" height="353" viewBox="0 0 593 353">
<defs>
<path id="b" d="M538.108 73.727l57.173 166.072c4.638 13.473-2.524 28.154-15.997 32.792a25.8 25.8 0 0 1-5.67 1.26L200.26 313.548c-17.457 1.857-34.048-8.013-40.748-24.239L90.754 122.785c-5.075-12.292.775-26.37 13.067-31.446a24.08 24.08 0 0 1 6.562-1.679l386.002-42.379c18.38-2.018 35.705 8.964 41.723 26.446z"/>
<filter id="a" width="115%" height="136%" x="-7.7%" y="-9%" filterUnits="objectBoundingBox">
<feOffset dx="-1" dy="34" in="SourceAlpha" result="shadowOffsetOuter1"/>
<feGaussianBlur in="shadowOffsetOuter1" result="shadowBlurOuter1" stdDeviation="7"/>
<feColorMatrix in="shadowBlurOuter1" values="0 0 0 0 0.690196078 0 0 0 0 0.737254902 0 0 0 0 0.811764706 0 0 0 0.397814764 0"/>
</filter>
<path id="c" d="M549.12 60.624l85.114 248.96c4.966 14.527-2.785 30.33-17.313 35.297-1.44.493-2.918.866-4.42 1.116L156.92 421.992c-20.806 3.47-41.023-8.798-47.55-28.856L20.22 119.149c-4.434-13.627 3.019-28.268 16.646-32.702a25.948 25.948 0 0 1 5.056-1.102L503.9 32.067c19.913-2.296 38.735 9.59 45.22 28.557z"/>
<filter id="d" width="101.6%" height="102.6%" x="-.8%" y="-1.3%" filterUnits="objectBoundingBox">
<feGaussianBlur in="SourceAlpha" result="shadowBlurInner1" stdDeviation="2.5"/>
<feOffset dx="1" dy="-5" in="shadowBlurInner1" result="shadowOffsetInner1"/>
<feComposite in="shadowOffsetInner1" in2="SourceAlpha" k2="-1" k3="1" operator="arithmetic" result="shadowInnerInner1"/>
<feColorMatrix in="shadowInnerInner1" result="shadowMatrixInner1" values="0 0 0 0 0.0529157158 0 0 0 0 0.780160502 0 0 0 0 0.546836133 0 0 0 0.0482336957 0"/>
<feGaussianBlur in="SourceAlpha" result="shadowBlurInner2" stdDeviation="2.5"/>
<feOffset dx="1" dy="-5" in="shadowBlurInner2" result="shadowOffsetInner2"/>
<feComposite in="shadowOffsetInner2" in2="SourceAlpha" k2="-1" k3="1" operator="arithmetic" result="shadowInnerInner2"/>
<feColorMatrix in="shadowInnerInner2" result="shadowMatrixInner2" values="0 0 0 0 0.737254902 0 0 0 0 0.737254902 0 0 0 0 0.831372549 0 0 0 0.3 0"/>
<feGaussianBlur in="SourceAlpha" result="shadowBlurInner3" stdDeviation="3"/>
<feOffset dx="1" dy="-4" in="shadowBlurInner3" result="shadowOffsetInner3"/>
<feComposite in="shadowOffsetInner3" in2="SourceAlpha" k2="-1" k3="1" operator="arithmetic" result="shadowInnerInner3"/>
<feColorMatrix in="shadowInnerInner3" result="shadowMatrixInner3" values="0 0 0 0 0.704020577 0 0 0 0 0.749080572 0 0 0 0 0.836017219 0 0 0 0.408882473 0"/>
<feMerge>
<feMergeNode in="shadowMatrixInner1"/>
<feMergeNode in="shadowMatrixInner2"/>
<feMergeNode in="shadowMatrixInner3"/>
</feMerge>
</filter>
<linearGradient id="e" x1="9.657%" x2="79.129%" y1="2.864%" y2="100%">
<stop offset="0%" stop-color="#545783"/>
<stop offset="100%" stop-color="#363A6D"/>
</linearGradient>
<linearGradient id="f" x1="35.603%" x2="94.217%" y1="-7.208%" y2="158.16%">
<stop offset="0%" stop-color="#FDB089"/>
<stop offset="100%" stop-color="#FA7851"/>
</linearGradient>
<path id="g" d="M209.19 12.112c7.438-.881 14.655 3.504 17.353 10.546l8.35 21.804c.304.794.523 1.615.654 2.45 1.026 6.533-3.453 12.497-10.005 13.32L33.282 84.47c-7.504.949-14.838-3.523-17.547-10.7L7.037 50.743a12.245 12.245 0 0 1-.642-2.42c-1.036-6.56 3.44-12.513 10-13.295L209.19 12.112z"/>
<filter id="h" width="103.5%" height="111%" x="-1.7%" y="-5.5%" filterUnits="objectBoundingBox">
<feGaussianBlur in="SourceAlpha" result="shadowBlurInner1" stdDeviation="2"/>
<feOffset dx="1" dy="-4" in="shadowBlurInner1" result="shadowOffsetInner1"/>
<feComposite in="shadowOffsetInner1" in2="SourceAlpha" k2="-1" k3="1" operator="arithmetic" result="shadowInnerInner1"/>
<feColorMatrix in="shadowInnerInner1" result="shadowMatrixInner1" values="0 0 0 0 0.0529157158 0 0 0 0 0.780160502 0 0 0 0 0.546836133 0 0 0 0.0482336957 0"/>
<feGaussianBlur in="SourceAlpha" result="shadowBlurInner2" stdDeviation=".5"/>
<feOffset dx="-1" dy="-1" in="shadowBlurInner2" result="shadowOffsetInner2"/>
<feComposite in="shadowOffsetInner2" in2="SourceAlpha" k2="-1" k3="1" operator="arithmetic" result="shadowInnerInner2"/>
<feColorMatrix in="shadowInnerInner2" result="shadowMatrixInner2" values="0 0 0 0 0.980392157 0 0 0 0 0.91372549 0 0 0 0 0.91372549 0 0 0 0.745782382 0"/>
<feGaussianBlur in="SourceAlpha" result="shadowBlurInner3" stdDeviation="1"/>
<feOffset dx="1" dy="-1" in="shadowBlurInner3" result="shadowOffsetInner3"/>
<feComposite in="shadowOffsetInner3" in2="SourceAlpha" k2="-1" k3="1" operator="arithmetic" result="shadowInnerInner3"/>
<feColorMatrix in="shadowInnerInner3" result="shadowMatrixInner3" values="0 0 0 0 0.862802934 0 0 0 0 0.481224387 0 0 0 0 0.481224387 0 0 0 0.408882473 0"/>
<feMerge>
<feMergeNode in="shadowMatrixInner1"/>
<feMergeNode in="shadowMatrixInner2"/>
<feMergeNode in="shadowMatrixInner3"/>
</feMerge>
</filter>
<path id="i" d="M206.923 14.62c7.438-.881 14.654 3.504 17.353 10.546l8.35 21.804c.305.794.524 1.615.655 2.45 1.027 6.534-3.452 12.498-10.003 13.322L31.037 86.986c-7.503.95-14.837-3.522-17.546-10.7L4.79 53.26a12.247 12.247 0 0 1-.642-2.42c-1.036-6.56 3.44-12.513 9.998-13.296l192.776-22.923z"/>
<filter id="j" width="101.3%" height="104.1%" x="-.7%" y="-2.1%" filterUnits="objectBoundingBox">
<feGaussianBlur in="SourceAlpha" result="shadowBlurInner1" stdDeviation="1"/>
<feOffset dx="1" dy="-1" in="shadowBlurInner1" result="shadowOffsetInner1"/>
<feComposite in="shadowOffsetInner1" in2="SourceAlpha" k2="-1" k3="1" operator="arithmetic" result="shadowInnerInner1"/>
<feColorMatrix in="shadowInnerInner1" values="0 0 0 0 0.741363733 0 0 0 0 0.324436178 0 0 0 0 0.199747564 0 0 0 1 0"/>
</filter>
<path id="k" d="M209.19 12.112c7.438-.881 14.655 3.504 17.353 10.546l8.35 21.804c.304.794.523 1.615.654 2.45 1.026 6.533-3.453 12.497-10.005 13.32L33.282 84.47c-7.504.949-14.838-3.523-17.547-10.7L7.037 50.743a12.245 12.245 0 0 1-.642-2.42c-1.036-6.56 3.44-12.513 10-13.295L209.19 12.112z"/>
<filter id="l" width="102.6%" height="108.3%" x="-1.3%" y="-4.1%" filterUnits="objectBoundingBox">
<feGaussianBlur in="SourceAlpha" result="shadowBlurInner1" stdDeviation="1"/>
<feOffset dx="1" dy="-4" in="shadowBlurInner1" result="shadowOffsetInner1"/>
<feComposite in="shadowOffsetInner1" in2="SourceAlpha" k2="-1" k3="1" operator="arithmetic" result="shadowInnerInner1"/>
<feColorMatrix in="shadowInnerInner1" result="shadowMatrixInner1" values="0 0 0 0 0.706924957 0 0 0 0 0.195837319 0 0 0 0 0 0 0 0 0.459776947 0"/>
<feGaussianBlur in="SourceAlpha" result="shadowBlurInner2" stdDeviation=".5"/>
<feOffset dy="1" in="shadowBlurInner2" result="shadowOffsetInner2"/>
<feComposite in="shadowOffsetInner2" in2="SourceAlpha" k2="-1" k3="1" operator="arithmetic" result="shadowInnerInner2"/>
<feColorMatrix in="shadowInnerInner2" result="shadowMatrixInner2" values="0 0 0 0 0.662745098 0 0 0 0 0.729411765 0 0 0 0 0.843137255 0 0 0 0.16 0"/>
<feMerge>
<feMergeNode in="shadowMatrixInner1"/>
<feMergeNode in="shadowMatrixInner2"/>
</feMerge>
</filter>
<linearGradient id="m" x1="12.441%" x2="93.016%" y1="-56.668%" y2="144.159%">
<stop offset="0%" stop-color="#FFF"/>
<stop offset="100%" stop-color="#FFF4E2" stop-opacity=".799"/>
</linearGradient>
<path id="n" d="M289.148 123.938c7.61-1.093 15.137 3.445 17.875 10.777l9.007 24.137c.244.655.432 1.328.561 2.01 1.242 6.544-3.02 12.644-9.52 13.625L115.427 203.52c-7.666 1.165-15.307-3.454-18.058-10.917l-9.364-25.373a12.475 12.475 0 0 1-.552-1.986c-1.252-6.572 3.007-12.662 9.513-13.603l192.182-27.703z"/>
<filter id="o" width="103.5%" height="110%" x="-1.7%" y="-5%" filterUnits="objectBoundingBox">
<feGaussianBlur in="SourceAlpha" result="shadowBlurInner1" stdDeviation="2"/>
<feOffset dx="1" dy="-4" in="shadowBlurInner1" result="shadowOffsetInner1"/>
<feComposite in="shadowOffsetInner1" in2="SourceAlpha" k2="-1" k3="1" operator="arithmetic" result="shadowInnerInner1"/>
<feColorMatrix in="shadowInnerInner1" result="shadowMatrixInner1" values="0 0 0 0 0.0529157158 0 0 0 0 0.780160502 0 0 0 0 0.546836133 0 0 0 0.0482336957 0"/>
<feGaussianBlur in="SourceAlpha" result="shadowBlurInner2" stdDeviation=".5"/>
<feOffset dx="-1" dy="-1" in="shadowBlurInner2" result="shadowOffsetInner2"/>
<feComposite in="shadowOffsetInner2" in2="SourceAlpha" k2="-1" k3="1" operator="arithmetic" result="shadowInnerInner2"/>
<feColorMatrix in="shadowInnerInner2" result="shadowMatrixInner2" values="0 0 0 0 0.980392157 0 0 0 0 0.91372549 0 0 0 0 0.91372549 0 0 0 0.745782382 0"/>
<feGaussianBlur in="SourceAlpha" result="shadowBlurInner3" stdDeviation="1"/>
<feOffset dx="1" dy="-1" in="shadowBlurInner3" result="shadowOffsetInner3"/>
<feComposite in="shadowOffsetInner3" in2="SourceAlpha" k2="-1" k3="1" operator="arithmetic" result="shadowInnerInner3"/>
<feColorMatrix in="shadowInnerInner3" result="shadowMatrixInner3" values="0 0 0 0 0.862802934 0 0 0 0 0.481224387 0 0 0 0 0.481224387 0 0 0 0.408882473 0"/>
<feMerge>
<feMergeNode in="shadowMatrixInner1"/>
<feMergeNode in="shadowMatrixInner2"/>
<feMergeNode in="shadowMatrixInner3"/>
</feMerge>
</filter>
<path id="p" d="M548.833 256.48c7.58-1.255 15.13 3.13 17.912 10.402l8.336 21.801c.243.637.433 1.292.566 1.958 1.3 6.493-2.882 12.662-9.34 13.778l-191.273 33.174c-7.637 1.33-15.304-3.14-18.096-10.549l-8.68-23.016a12.335 12.335 0 0 1-.553-1.924c-1.311-6.522 2.865-12.683 9.328-13.76l191.8-31.864z"/>
<filter id="q" width="103.5%" height="109.8%" x="-1.8%" y="-4.9%" filterUnits="objectBoundingBox">
<feGaussianBlur in="SourceAlpha" result="shadowBlurInner1" stdDeviation="2"/>
<feOffset dx="1" dy="-4" in="shadowBlurInner1" result="shadowOffsetInner1"/>
<feComposite in="shadowOffsetInner1" in2="SourceAlpha" k2="-1" k3="1" operator="arithmetic" result="shadowInnerInner1"/>
<feColorMatrix in="shadowInnerInner1" result="shadowMatrixInner1" values="0 0 0 0 0.0529157158 0 0 0 0 0.780160502 0 0 0 0 0.546836133 0 0 0 0.0482336957 0"/>
<feGaussianBlur in="SourceAlpha" result="shadowBlurInner2" stdDeviation=".5"/>
<feOffset dx="-1" dy="-1" in="shadowBlurInner2" result="shadowOffsetInner2"/>
<feComposite in="shadowOffsetInner2" in2="SourceAlpha" k2="-1" k3="1" operator="arithmetic" result="shadowInnerInner2"/>
<feColorMatrix in="shadowInnerInner2" result="shadowMatrixInner2" values="0 0 0 0 0.980392157 0 0 0 0 0.91372549 0 0 0 0 0.91372549 0 0 0 0.745782382 0"/>
<feGaussianBlur in="SourceAlpha" result="shadowBlurInner3" stdDeviation="1"/>
<feOffset dx="1" dy="-1" in="shadowBlurInner3" result="shadowOffsetInner3"/>
<feComposite in="shadowOffsetInner3" in2="SourceAlpha" k2="-1" k3="1" operator="arithmetic" result="shadowInnerInner3"/>
<feColorMatrix in="shadowInnerInner3" result="shadowMatrixInner3" values="0 0 0 0 0.862802934 0 0 0 0 0.481224387 0 0 0 0 0.481224387 0 0 0 0.408882473 0"/>
<feMerge>
<feMergeNode in="shadowMatrixInner1"/>
<feMergeNode in="shadowMatrixInner2"/>
<feMergeNode in="shadowMatrixInner3"/>
</feMerge>
</filter>
<path id="r" d="M286.915 126.466c7.61-1.094 15.136 3.444 17.874 10.776l9.008 24.138c.244.655.432 1.327.562 2.01 1.242 6.544-3.02 12.644-9.519 13.626l-191.625 29.04c-7.664 1.166-15.305-3.453-18.057-10.916l-9.365-25.374a12.477 12.477 0 0 1-.552-1.986c-1.253-6.572 3.005-12.662 9.511-13.604l192.163-27.71z"/>
<filter id="s" width="101.3%" height="103.8%" x="-.7%" y="-1.9%" filterUnits="objectBoundingBox">
<feGaussianBlur in="SourceAlpha" result="shadowBlurInner1" stdDeviation="1"/>
<feOffset dx="1" dy="-1" in="shadowBlurInner1" result="shadowOffsetInner1"/>
<feComposite in="shadowOffsetInner1" in2="SourceAlpha" k2="-1" k3="1" operator="arithmetic" result="shadowInnerInner1"/>
<feColorMatrix in="shadowInnerInner1" values="0 0 0 0 0.741363733 0 0 0 0 0.324436178 0 0 0 0 0.199747564 0 0 0 1 0"/>
</filter>
<linearGradient id="t" x1="74.079%" x2="50%" y1="-58.185%" y2="100%">
<stop offset="0%" stop-color="#76DEF0"/>
<stop offset="100%" stop-color="#249FB5"/>
</linearGradient>
<path id="u" d="M288.258 122.846c7.61-1.093 15.137 3.444 17.875 10.777l9.006 24.137c.244.655.432 1.327.562 2.01 1.242 6.544-3.021 12.644-9.52 13.625l-191.645 29.032c-7.665 1.166-15.306-3.454-18.058-10.916l-9.363-25.374a12.475 12.475 0 0 1-.552-1.986c-1.253-6.571 3.006-12.662 9.513-13.603l192.182-27.702z"/>
<filter id="v" width="102.6%" height="107.5%" x="-1.3%" y="-3.8%" filterUnits="objectBoundingBox">
<feGaussianBlur in="SourceAlpha" result="shadowBlurInner1" stdDeviation="1"/>
<feOffset dx="1" dy="-4" in="shadowBlurInner1" result="shadowOffsetInner1"/>
<feComposite in="shadowOffsetInner1" in2="SourceAlpha" k2="-1" k3="1" operator="arithmetic" result="shadowInnerInner1"/>
<feColorMatrix in="shadowInnerInner1" result="shadowMatrixInner1" values="0 0 0 0 0.706924957 0 0 0 0 0.195837319 0 0 0 0 0 0 0 0 0.459776947 0"/>
<feGaussianBlur in="SourceAlpha" result="shadowBlurInner2" stdDeviation=".5"/>
<feOffset dy="1" in="shadowBlurInner2" result="shadowOffsetInner2"/>
<feComposite in="shadowOffsetInner2" in2="SourceAlpha" k2="-1" k3="1" operator="arithmetic" result="shadowInnerInner2"/>
<feColorMatrix in="shadowInnerInner2" result="shadowMatrixInner2" values="0 0 0 0 0.662745098 0 0 0 0 0.729411765 0 0 0 0 0.843137255 0 0 0 0.16 0"/>
<feMerge>
<feMergeNode in="shadowMatrixInner1"/>
<feMergeNode in="shadowMatrixInner2"/>
</feMerge>
</filter>
<linearGradient id="w" x1="67.364%" x2="67.364%" y1="9.186%" y2="83.909%">
<stop offset="0%" stop-color="#76DEF0"/>
<stop offset="100%" stop-color="#39BFD7"/>
</linearGradient>
<path id="x" d="M548.833 256.48c7.58-1.255 15.13 3.13 17.912 10.402l8.336 21.801c.243.637.433 1.292.566 1.958 1.3 6.493-2.882 12.662-9.34 13.778l-191.273 33.174c-7.637 1.33-15.304-3.14-18.096-10.549l-8.68-23.016a12.335 12.335 0 0 1-.553-1.924c-1.311-6.522 2.865-12.683 9.328-13.76l191.8-31.864z"/>
<filter id="y" width="101.8%" height="104.9%" x="-.9%" y="-2.5%" filterUnits="objectBoundingBox">
<feGaussianBlur in="SourceAlpha" result="shadowBlurInner1" stdDeviation="1"/>
<feOffset dx="2" dy="-1" in="shadowBlurInner1" result="shadowOffsetInner1"/>
<feComposite in="shadowOffsetInner1" in2="SourceAlpha" k2="-1" k3="1" operator="arithmetic" result="shadowInnerInner1"/>
<feColorMatrix in="shadowInnerInner1" values="0 0 0 0 0.109803922 0 0 0 0 0.607843137 0 0 0 0 0.701960784 0 0 0 0.15 0"/>
</filter>
<linearGradient id="z" x1="12.441%" x2="118.189%" y1="-56.668%" y2="123.787%">
<stop offset="0%" stop-color="#FFF"/>
<stop offset="100%" stop-color="#E2FFF7" stop-opacity=".799"/>
</linearGradient>
</defs>
<g fill="none" fill-rule="evenodd">
<use fill="#000" filter="url(#a)" transform="rotate(6 813.378 -150.391)" xlink:href="#b"/>
<g transform="rotate(6 797.906 -103.617)">
<use fill="#FFF" xlink:href="#c"/>
<use fill="#000" filter="url(#d)" xlink:href="#c"/>
</g>
<path fill="#E9EDFA" d="M80.384 16.83l394.092-3.403 65.215 286.84-393.799 26.43z" opacity=".6"/>
<path fill="#E9EDFA" d="M509.734 169.544l29.957 130.723-393.799 26.43-31.889-148.805z" opacity=".6"/>
<path fill="url(#e)" d="M76.607 78.193l75.917-8.643 99.429 296.194-77.807 13.77z" transform="rotate(6 634.849 -106.266)"/>
<path fill="#DBE0F3" d="M443.874 37.596l-263.386 6.08c-6.145.113-9.937 5.816-8.47 12.74l8.97 42.307c1.468 6.923 7.637 12.398 13.779 12.23l263.201-9.189c6.142-.169 9.948-5.642 8.5-12.225l-8.846-40.227c-1.448-6.583-7.603-11.828-13.748-11.716z"/>
<path fill="#F2F4FC" fill-rule="nonzero" d="M441.016 58.888l-160.09 3.881c-1.536.033-2.485 1.442-2.12 3.148l.662 3.089c.366 1.706 1.907 3.06 3.443 3.026l160.076-4.12c1.536-.034 2.487-1.408 2.125-3.069l-.657-3.007c-.363-1.66-1.902-2.98-3.439-2.948zm-73.88 17.388l-86.209 2.01c-1.536.036-2.486 1.429-2.122 3.111l.66 3.047c.364 1.683 1.904 3.016 3.44 2.978l86.203-2.121c1.535-.038 2.486-1.415 2.123-3.076l-.656-3.007c-.363-1.66-1.902-2.977-3.438-2.942zm-106.54 2.482l-11.123.26 2.981 13.961 11.123-.28-2.98-13.94zm-16.555-12.09l-11.125.24 5.635 26.422 11.122-.28-5.632-26.383zm-13.243 3.409l-11.125.245 4.975 23.36 11.122-.281-4.972-23.324zm-12.58 6.538l-11.123.254 3.65 17.164 11.122-.281-3.648-17.137zm-17.555-16.852l-11.125.228 7.303 34.393 11.123-.281-7.3-34.34z"/>
<path fill="#DBE0F3" d="M481.897 210.702l-262.89 14.462c-6.136.266-9.92 6.094-8.453 13.017l8.97 42.308c1.467 6.923 7.629 12.273 13.762 11.95l262.706-17.568c6.133-.324 9.93-5.922 8.483-12.505l-8.846-40.227c-1.448-6.583-7.596-11.703-13.732-11.437z"/>
<path fill="#F2F4FC" fill-rule="nonzero" d="M410.04 252.995l-86.081 4.175c-1.534.074-2.482 1.498-2.118 3.18l.66 3.047c.364 1.683 1.902 2.985 3.435 2.909l86.076-4.287c1.533-.076 2.482-1.484 2.12-3.145l-.658-3.007c-.362-1.66-1.9-2.946-3.433-2.872zM505.882 248.397L419.8 252.57c-1.534.075-2.482 1.5-2.118 3.182l.66 3.046c.364 1.683 1.902 2.985 3.436 2.909l86.075-4.287c1.533-.076 2.482-1.484 2.12-3.145l-.658-3.007c-.362-1.66-1.9-2.947-3.433-2.872zM296.359 246.038l-11.109.52 5.632 26.372 11.106-.56-5.63-26.332zm-11.235 13.065l-11.108.538L277 273.63l11.106-.56-2.982-13.967zm-17.53-16.431l-11.11.512 6.633 31.146 11.106-.56-6.63-31.098zm-12.892 5.314l-11.108.52 5.64 26.525 11.106-.56-5.638-26.485zm-11.563 11.576l-11.107.536 3.32 15.633 11.106-.56-3.319-15.61zM479.12 233.357l-159.817 8.49c-1.534.07-2.481 1.511-2.116 3.217l.662 3.089c.365 1.706 1.905 3.03 3.439 2.957l159.803-8.73c1.534-.072 2.483-1.478 2.12-3.138l-.657-3.007c-.362-1.66-1.9-2.95-3.434-2.878z"/>
<path fill="#DBE0F3" d="M464.822 121.397l-262.89 14.461c-6.136.266-9.92 6.095-8.453 13.018l8.97 42.308c1.468 6.923 7.63 12.273 13.762 11.95l262.706-17.569c6.133-.323 9.931-5.922 8.484-12.504l-8.847-40.227c-1.447-6.583-7.595-11.704-13.732-11.437z"/>
<path fill="#F2F4FC" fill-rule="nonzero" d="M460.331 140.292l-159.817 8.49c-1.534.072-2.481 1.512-2.116 3.218l.662 3.089c.366 1.706 1.905 3.03 3.439 2.956l159.803-8.728c1.534-.074 2.483-1.479 2.12-3.14l-.656-3.006c-.363-1.661-1.9-2.95-3.435-2.879zM393.607 161.44l-86.082 4.174c-1.533.074-2.481 1.498-2.117 3.18l.66 3.047c.363 1.683 1.901 2.985 3.435 2.909l86.075-4.287c1.534-.076 2.483-1.484 2.12-3.145l-.657-3.007c-.363-1.66-1.9-2.946-3.434-2.872zM279.284 156.733l-11.108.519 5.632 26.372 11.106-.56-5.63-26.331zm-11.235 13.064l-11.107.539 2.983 13.988 11.106-.56-2.982-13.967zm-17.53-16.43l-11.11.512 6.633 31.146 11.107-.56-6.63-31.099zm-12.891 5.313l-11.109.52 5.64 26.525 11.107-.56-5.638-26.485zm-11.563 11.576l-11.108.536 3.32 15.634 11.106-.56-3.318-15.61z"/>
<g>
<g transform="rotate(6 300.701 3283.03)">
<use fill="url(#f)" xlink:href="#g"/>
<use fill="#000" filter="url(#h)" xlink:href="#g"/>
</g>
<g transform="rotate(6 298.445 3285.543)">
<use fill="#D06843" xlink:href="#i"/>
<use fill="#000" filter="url(#j)" xlink:href="#i"/>
</g>
<g transform="rotate(6 300.701 3283.03)">
<use fill="#F38D63" xlink:href="#k"/>
<use fill="#000" filter="url(#l)" xlink:href="#k"/>
</g>
<path fill="url(#m)" d="M27.894 47.012l5.086-.103-1.173-5.28 3.013-.062 1.175 5.28 5.113-.103.66 2.951-5.116.104 1.181 5.307-3.018.06-1.179-5.306-5.089.103-.653-2.951zm25.377 8.98l-3.692.075-2.635-11.754-4.197.085-.563-2.518c2.549-.08 4.002-1.55 3.939-3.4l3.199-.065 3.95 17.578zm19.182-17.641l-.33 3.055c-.828-.31-1.918-.587-3.02-.564-2.959.06-4.986 1.843-4.64 5.156.424-.988 1.656-1.993 3.7-2.035 3.579-.072 6.546 2.154 7.374 5.785.821 3.603-1.503 6.236-5.357 6.313-3.827.077-7.713-2.62-8.913-7.93-1.426-6.312 1.592-10.4 7.345-10.518 1.613-.033 3.016.319 3.84.738zM65.7 50.028c.405 1.788 2.123 2.924 3.74 2.891 1.697-.034 2.839-1.2 2.426-3.015-.413-1.816-2.065-2.898-3.76-2.864-1.67.034-2.818 1.173-2.406 2.988zm11.51.53l3.294-.856c.452 1.624 1.995 2.927 3.854 2.89 1.67-.034 2.762-1.172 2.358-2.934-.46-2.005-2.158-2.924-3.773-2.891-1.185.024-2.003.585-2.42 1.247-.38-.129-3.256-.996-3.657-1.097l.01-9.065 9.84-.201.74 3.225-7.315.149.026 3.892c.592-.72 1.743-1.124 2.9-1.147 3.498-.071 6.46 1.992 7.326 5.76.754 3.279-1.098 6.175-5.302 6.26-3.8.075-7.035-2.473-7.882-5.232zm15.268.862l-.898-3.902 5.055-10.07 4.57-.093 2.464 10.626 2.88-.058.744 3.199-2.882.058.874 3.768-3.666.074-.871-3.768-8.27.166zm7.53-3.365l-1.556-6.722-3.425 6.823 4.98-.1zm19.16-1.232l-2.25-2.57 3.646-4.051-7.638.155-.753-3.226 12.34-.252.707 3.01-3.628 3.888c2.663.055 5.563 2.04 6.322 5.267.714 3.037-1.109 5.88-5.34 5.965-4.07.082-7.17-2.525-8.074-5.476l3.417-.777c.499 1.787 2.07 3.063 3.901 3.027 1.859-.038 2.683-1.253 2.34-2.718-.388-1.654-1.796-2.579-3.465-2.545-.753.015-1.18.16-1.524.303zm12.972-3.26l-3.55-.037a7.713 7.713 0 0 1-.422-1.218c-.728-3.091.926-5.932 4.985-6.015 3.898-.08 6.908 2.476 7.635 5.54.54 2.28-.26 4.149-2.1 5.522l-2.878 2.13c-.57.447-1.02.946-1.13 1.63l8.377-.17.766 3.229-12.936.26c-.7-3.092-.325-5.634 2.35-7.596l2.47-1.794c1.27-.925 1.643-1.86 1.354-3.08-.301-1.275-1.459-2.396-3.207-2.36-1.855.038-2.469 1.33-2.079 2.985.077.326.214.677.365.974zm21.25 10.419l-3.692.074-2.802-11.774-4.197.085-.6-2.522c2.55-.08 3.982-1.554 3.893-3.405l3.199-.066 4.2 17.608zm11.308-9.062c.444 1.845 1.091 3.414 2.019 4.458.748.858 1.72 1.411 2.986 1.386 1.293-.027 1.937-.612 2.266-1.491.445-1.073.334-2.653-.111-4.498-.446-1.846-1.095-3.414-2.05-4.458-.747-.858-1.664-1.412-2.955-1.386-1.264.026-1.96.613-2.29 1.492-.418 1.072-.308 2.652.135 4.497zm-3.714.075c-.54-2.252-.718-4.457.03-6.3.738-1.76 2.327-3.019 5.042-3.074 2.715-.056 4.891 1.127 6.44 2.84 1.623 1.795 2.531 3.986 3.076 6.239.545 2.252.7 4.458-.046 6.3-.712 1.76-2.304 3.02-5.026 3.074-2.722.055-4.902-1.128-6.477-2.842-1.622-1.794-2.5-3.985-3.04-6.237zm26.552 8.3l-3.692.075-2.86-11.78-4.197.085-.61-2.524c2.548-.08 3.974-1.554 3.875-3.407l3.199-.066 4.285 17.618zm3.965-10.937l-3.552-.037a7.787 7.787 0 0 1-.432-1.219c-.754-3.095.877-5.938 4.936-6.021 3.898-.08 6.93 2.478 7.682 5.546.56 2.281-.225 4.153-2.053 5.527l-2.86 2.131c-.568.448-1.014.948-1.118 1.632l8.378-.168.793 3.23-12.936.26c-.727-3.095-.373-5.639 2.287-7.603l2.455-1.795c1.261-.926 1.627-1.862 1.328-3.083-.312-1.276-1.479-2.399-3.227-2.363-1.856.038-2.459 1.332-2.054 2.988.08.326.22.678.373.975zm16.45 2.668l-2.283-2.573 3.596-4.058-7.638.155-.794-3.231 12.34-.252.745 3.015-3.58 3.894c2.664.055 5.59 2.043 6.39 5.275.752 3.041-1.036 5.889-5.267 5.974-4.07.081-7.203-2.53-8.145-5.485l3.408-.779c.522 1.791 2.109 3.069 3.94 3.032 1.86-.037 2.669-1.255 2.307-2.721-.41-1.657-1.828-2.583-3.497-2.55-.754.016-1.178.16-1.522.304z" transform="translate(339.106 -1.067)"/>
</g>
<g transform="rotate(6 672.59 -167.06)">
<use fill="url(#f)" xlink:href="#n"/>
<use fill="#000" filter="url(#o)" xlink:href="#n"/>
</g>
<g transform="rotate(6 932.243 -33.752)">
<use fill="url(#f)" xlink:href="#p"/>
<use fill="#000" filter="url(#q)" xlink:href="#p"/>
</g>
<g transform="rotate(6 670.367 -164.528)">
<use fill="#D06843" xlink:href="#r"/>
<use fill="#000" filter="url(#s)" xlink:href="#r"/>
</g>
<path fill="url(#t)" d="M544.235 261.345c7.579-1.255 15.129 3.129 17.911 10.401l8.337 21.802c.243.637.432 1.292.566 1.958 1.3 6.493-2.88 12.662-9.338 13.779l-191.253 33.182c-7.637 1.33-15.303-3.139-18.096-10.548l-8.681-23.017a12.337 12.337 0 0 1-.553-1.924c-1.312-6.522 2.864-12.683 9.327-13.76l191.78-31.873z" transform="rotate(6 927.655 -28.882)"/>
<g transform="rotate(6 671.699 -168.153)">
<use fill="#F38D63" xlink:href="#u"/>
<use fill="#000" filter="url(#v)" xlink:href="#u"/>
</g>
<path fill="url(#m)" d="M108 163.222l5.084-.191-1.268-5.314 3.01-.113 1.27 5.314 5.112-.192.712 2.97-5.113.192 1.277 5.341-3.016.113-1.275-5.34-5.086.19-.707-2.97zm25.536 8.64l-3.69.138-2.847-11.829-4.195.158-.609-2.535c2.547-.123 3.974-1.635 3.877-3.501l3.197-.12 4.267 17.69zm18.86-18.149l-.276 3.093c-.832-.3-1.927-.56-3.029-.52-2.957.112-4.952 1.948-4.547 5.29.407-1.007 1.62-2.043 3.664-2.12 3.577-.134 6.584 2.065 7.477 5.718.887 3.627-1.39 6.326-5.242 6.47-3.825.142-7.759-2.517-9.054-7.86-1.54-6.352 1.403-10.534 7.153-10.75 1.612-.062 3.021.27 3.853.68zm-6.542 11.912c.438 1.8 2.177 2.917 3.792 2.857 1.697-.063 2.817-1.26 2.372-3.088-.446-1.826-2.117-2.892-3.812-2.828-1.668.062-2.796 1.233-2.352 3.06zm11.518.34l3.279-.922c.481 1.634 2.048 2.923 3.905 2.854 1.67-.062 2.741-1.23 2.305-3.004-.496-2.018-2.21-2.917-3.825-2.856-1.184.044-1.992.625-2.396 1.3-.383-.123-3.274-.95-3.677-1.045l-.154-9.158 9.834-.37.8 3.245-7.312.275.096 3.932c.58-.737 1.723-1.166 2.88-1.209 3.495-.131 6.493 1.903 7.428 5.694.813 3.3-.986 6.257-5.188 6.414-3.799.142-7.079-2.378-7.975-5.15zm15.282.61l-.969-3.927 4.873-10.258 4.568-.172 2.655 10.693 2.88-.108.8 3.219-2.88.108.941 3.791-3.663.137-.94-3.792-8.265.31zm7.467-3.527l-1.676-6.765-3.302 6.951 4.978-.186zm19.136-1.571l-2.296-2.558 3.572-4.155-7.634.287-.811-3.246 12.333-.465.762 3.029-3.558 3.99c2.663.01 5.599 1.965 6.416 5.213.77 3.056-1.002 5.959-5.231 6.117-4.068.152-7.214-2.43-8.172-5.395l3.402-.844c.532 1.798 2.125 3.06 3.956 2.992 1.858-.07 2.66-1.311 2.29-2.785-.418-1.664-1.841-2.575-3.51-2.512-.753.028-1.176.181-1.519.332zm12.911-3.514l-3.55.023a7.854 7.854 0 0 1-.445-1.223c-.783-3.111.82-6.009 4.876-6.162 3.896-.147 6.952 2.383 7.734 5.468.582 2.292-.185 4.195-1.999 5.613l-2.84 2.2c-.562.462-1.003.974-1.1 1.666l8.373-.313.824 3.248-12.93.483c-.756-3.112-.427-5.686 2.213-7.713l2.438-1.855c1.251-.956 1.608-1.906 1.297-3.134-.324-1.283-1.501-2.396-3.249-2.33-1.854.07-2.445 1.387-2.024 3.051.082.328.226.68.382.978zm21.435 10.163l-3.69.138-3.015-11.847-4.195.158-.644-2.538c2.547-.124 3.953-1.637 3.83-3.506l3.197-.12 4.517 17.715zm11.142-9.347c.477 1.857 1.153 3.43 2.1 4.47.762.853 1.744 1.395 3.01 1.348 1.292-.048 1.925-.65 2.239-1.545.425-1.09.286-2.685-.193-4.541-.478-1.857-1.156-3.43-2.13-4.47-.762-.853-1.69-1.397-2.98-1.348-1.263.047-1.949.652-2.262 1.546-.398 1.09-.26 2.684.216 4.54zm-3.712.14c-.581-2.267-.798-4.491-.085-6.365.708-1.79 2.273-3.09 4.987-3.192 2.713-.103 4.91 1.055 6.49 2.76 1.656 1.785 2.603 3.983 3.189 6.25.585 2.266.78 4.492.068 6.366-.68 1.79-2.25 3.089-4.97 3.19-2.72.102-4.922-1.057-6.528-2.76-1.654-1.785-2.57-3.984-3.151-6.25zm26.698 7.933l-3.69.137-3.072-11.852-4.195.158-.657-2.54c2.547-.123 3.946-1.637 3.814-3.507l3.197-.12 4.603 17.724zm3.767-11.117l-3.552.023a7.928 7.928 0 0 1-.454-1.224c-.81-3.114.769-6.014 4.826-6.167 3.896-.147 6.973 2.385 7.782 5.472.6 2.295-.15 4.199-1.953 5.618l-2.823 2.202c-.559.462-.996.975-1.087 1.668l8.373-.313.852 3.25-12.93.483c-.783-3.115-.474-5.69 2.15-7.72l2.422-1.856c1.245-.957 1.594-1.908 1.272-3.137-.335-1.284-1.522-2.397-3.27-2.332-1.854.07-2.433 1.388-2 3.054.086.328.233.681.392.979zm16.496 2.415l-2.33-2.561 3.523-4.16-7.635.287-.852-3.251 12.333-.465.8 3.033-3.51 3.995c2.665.01 5.627 1.968 6.485 5.22.807 3.06-.929 5.966-5.158 6.124-4.067.152-7.247-2.432-8.243-5.402l3.394-.844c.554 1.8 2.163 3.064 3.994 2.995 1.858-.07 2.645-1.313 2.257-2.788-.439-1.667-1.875-2.578-3.543-2.516-.753.028-1.175.182-1.515.333z" transform="translate(-32 -51)"/>
<g transform="rotate(6 932.243 -33.752)">
<use fill="url(#w)" xlink:href="#x"/>
<use fill="#000" filter="url(#y)" xlink:href="#x"/>
</g>
<path fill="url(#z)" d="M370 297.524l5.081-.28-1.363-5.335 3.009-.166 1.366 5.336 5.108-.281.765 2.983-5.11.28 1.373 5.364-3.015.165-1.37-5.363-5.084.28-.76-2.983zm25.694 8.274l-3.688.202-3.06-11.878-4.192.231-.654-2.545c2.545-.168 3.945-1.716 3.815-3.596l3.195-.177 4.584 17.763zm18.538-18.623l-.22 3.123c-.838-.287-1.938-.532-3.04-.471-2.954.163-4.917 2.048-4.452 5.41.389-1.021 1.584-2.087 3.627-2.2 3.574-.196 6.621 1.969 7.58 5.637.951 3.642-1.277 6.402-5.127 6.613-3.823.21-7.805-2.404-9.197-7.769-1.654-6.377 1.216-10.645 6.962-10.962 1.611-.09 3.027.221 3.867.62zm-6.33 12.123c.47 1.806 2.23 2.904 3.844 2.815 1.696-.093 2.795-1.32 2.317-3.154-.478-1.834-2.17-2.88-3.863-2.786-1.667.091-2.774 1.29-2.297 3.125zm11.526.144l3.263-.985c.51 1.638 2.1 2.912 3.957 2.81 1.668-.092 2.719-1.288 2.251-3.068-.532-2.026-2.263-2.903-3.876-2.814-1.184.065-1.981.664-2.374 1.352-.385-.117-3.291-.902-3.696-.99l-.317-9.231 9.828-.543.858 3.259-7.308.402.167 3.963c.566-.753 1.702-1.205 2.857-1.268 3.495-.193 6.53 1.807 7.532 5.613.873 3.313-.874 6.326-5.074 6.556-3.796.208-7.122-2.275-8.068-5.056zm15.295.354l-1.039-3.943 4.69-10.427 4.565-.252 2.847 10.736 2.878-.159.858 3.232-2.879.158 1.01 3.807-3.661.2-1.008-3.806-8.26.454zm7.406-3.685l-1.798-6.792-3.178 7.065 4.976-.273zm19.11-1.913l-2.343-2.539 3.499-4.25-7.63.42-.87-3.26 12.327-.68.816 3.04-3.487 4.085c2.664-.036 5.635 1.885 6.51 5.145.824 3.069-.895 6.026-5.122 6.258-4.065.223-7.258-2.326-8.27-5.3l3.388-.908c.564 1.803 2.18 3.049 4.01 2.948 1.857-.102 2.637-1.368 2.24-2.847-.447-1.67-1.887-2.565-3.555-2.473-.753.042-1.173.204-1.513.361zm12.85-3.765l-3.551.085a7.966 7.966 0 0 1-.466-1.226c-.84-3.123.712-6.072 4.766-6.296 3.894-.215 6.995 2.284 7.833 5.38.623 2.301-.11 4.232-1.899 5.693l-2.8 2.267c-.555.476-.987 1-1.072 1.7l8.37-.46.881 3.26-12.922.71c-.813-3.125-.529-5.726 2.075-7.815l2.405-1.912c1.234-.986 1.574-1.95 1.241-3.183-.347-1.287-1.545-2.39-3.29-2.293-1.855.102-2.421 1.44-1.971 3.111.088.33.238.682.4.98zm21.62 9.88l-3.689.202-3.227-11.893-4.192.231-.69-2.548c2.544-.168 3.924-1.718 3.767-3.6l3.196-.177 4.834 17.784zm10.976-9.616c.51 1.864 1.214 3.439 2.18 4.47.778.848 1.77 1.378 3.035 1.308 1.291-.07 1.914-.689 2.211-1.596.406-1.107.238-2.712-.274-4.575-.512-1.864-1.217-3.44-2.21-4.47-.777-.847-1.715-1.38-3.004-1.309-1.263.07-1.938.691-2.235 1.598-.38 1.106-.213 2.71.297 4.574zm-3.71.204c-.622-2.274-.879-4.514-.199-6.415.676-1.818 2.218-3.155 4.93-3.304 2.712-.15 4.93.98 6.541 2.671 1.688 1.772 2.675 3.971 3.3 6.246.627 2.276.861 4.516.183 6.418-.649 1.816-2.194 3.153-4.914 3.302-2.719.15-4.94-.98-6.578-2.671-1.686-1.771-2.642-3.972-3.263-6.247zm26.843 7.54l-3.688.203-3.284-11.897-4.193.23-.702-2.549c2.545-.168 3.917-1.718 3.751-3.602l3.196-.176 4.92 17.792zm3.569-11.273l-3.552.084a8.04 8.04 0 0 1-.476-1.226c-.866-3.125.662-6.076 4.716-6.3 3.894-.215 7.018 2.285 7.881 5.383.642 2.304-.075 4.236-1.853 5.698l-2.783 2.269c-.55.475-.979 1-1.058 1.7l8.37-.46.909 3.263-12.923.709c-.838-3.127-.576-5.73 2.012-7.82l2.39-1.913c1.227-.986 1.559-1.951 1.216-3.185-.359-1.289-1.566-2.391-3.312-2.295-1.854.102-2.41 1.441-1.946 3.114.092.329.244.682.409.98zm16.541 2.152l-2.376-2.542 3.45-4.255-7.631.42-.91-3.263 12.326-.68.854 3.044-3.438 4.088c2.665-.035 5.662 1.888 6.578 5.152.862 3.071-.822 6.032-5.049 6.264-4.065.223-7.291-2.329-8.34-5.306l3.378-.91c.587 1.806 2.22 3.053 4.05 2.952 1.856-.102 2.621-1.369 2.206-2.85-.468-1.672-1.92-2.567-3.588-2.475-.753.041-1.172.203-1.51.361z" transform="translate(-32 -51)"/>
</g>
</svg>
