<svg width="448" height="104" viewBox="0 0 448 104" fill="none" xmlns="http://www.w3.org/2000/svg">
<path d="M31.0517 66.1094C33.2559 66.1094 35.0428 64.3226 35.0428 62.1184C35.0428 59.9141 33.2559 58.1273 31.0517 58.1273C28.8474 58.1273 27.0605 59.9141 27.0605 62.1184C27.0605 64.3226 28.8474 66.1094 31.0517 66.1094Z" fill="white"/>
<path d="M28.2577 63.3157C27.4595 65.5108 26.4617 70.6992 24.6658 72.4952C26.4617 70.6992 24.4662 71.8965 22.6702 71.8965C20.8742 71.8965 18.8787 72.2957 17.0827 72.4952C15.4862 72.6948 14.4884 74.4908 15.8853 75.6881C18.8787 78.6814 21.872 81.6747 25.0649 84.6681C25.464 83.6703 25.8631 82.6725 26.2622 81.4752C21.872 82.0739 17.2822 82.473 12.892 83.0716C11.4951 83.2712 10.2978 85.0672 11.6947 86.2645C12.6924 87.2623 13.6902 88.2601 14.688 89.2578C15.8853 90.2556 17.0827 92.6503 17.0827 91.2534C17.4818 94.4463 13.6902 97.0405 15.8853 100.632C18.28 104.823 27.4595 104.624 31.2511 102.628C37.2377 99.2356 38.8342 90.0561 40.8297 84.269C42.4262 79.6792 43.0248 77.6836 47.8141 75.6881C53.0026 73.493 57.7919 72.2956 62.3817 68.7037C80.1421 55.1339 82.3372 26.5975 66.3728 10.6331C50.0093 -5.53086 21.4729 -2.73709 8.10268 15.4224C1.11825 24.8015 -1.07686 37.1739 1.91647 48.349C2.91425 51.5419 4.71024 54.3357 5.90757 57.5286C7.90312 63.5152 6.10713 66.5086 4.11158 71.697C2.71469 75.0894 1.51736 78.4819 0.120475 81.8743C-0.677745 84.0694 2.71469 85.0672 3.71247 82.8721C5.90757 77.2845 8.9009 71.4974 10.2978 65.7103C11.4951 59.9232 10.8965 59.125 8.9009 55.1339C4.9098 47.3513 3.1138 38.9699 4.9098 30.1895C11.2956 0.25624 54.9981 -7.72597 69.5657 20.6109C76.3505 33.9811 74.355 50.9432 63.7786 61.7192C58.9892 66.7081 53.4017 69.3023 46.8164 71.2979C43.6235 72.2956 42.0271 72.0961 40.0315 74.8899C37.4373 78.2823 36.4395 84.8676 35.0426 88.8587C33.2466 94.0472 32.2488 99.2356 24.8653 99.6347C18.8787 100.034 19.4773 95.2445 20.8742 91.0538C21.0738 90.4552 20.8742 89.6569 20.4751 89.2578C18.4795 87.2623 16.2844 85.2667 14.2889 83.4707C13.8898 84.4685 13.4907 85.4663 13.0916 86.6636C17.4818 86.065 22.0715 85.6658 26.4617 85.0672C27.8586 84.8676 29.056 83.0716 27.6591 81.8743C24.6658 78.881 21.6724 75.8876 18.4795 72.8943C18.0804 73.8921 17.6813 74.8899 17.2822 76.0872C20.2755 75.8876 23.4684 75.4885 26.4617 75.289C27.26 75.289 27.8586 74.6903 28.2577 73.8921C29.4551 70.6992 30.6524 67.5063 31.8497 64.3134C32.648 61.9188 29.2555 61.1206 28.2577 63.3157Z" fill="white"/>
<path d="M25.2647 23.8038C38.2358 21.01 51.4065 26.9967 59.3887 37.174C60.9851 39.3691 63.9784 36.3758 62.382 34.1806C53.402 22.806 38.6349 16.8193 24.267 19.8127C21.4732 20.4113 22.6705 24.4024 25.2647 23.8038Z" fill="white"/>
<path d="M24.8667 35.1784C35.2436 33.1829 46.0196 38.3713 53.004 45.7548C54.8 47.7504 57.7933 44.757 55.9973 42.7615C48.0151 34.1806 35.6427 28.7926 23.8689 30.9877C21.0752 31.5864 22.0729 35.5775 24.8667 35.1784Z" fill="white"/>
<path d="M23.2699 45.7548C31.6512 45.1562 40.4316 48.3491 45.8196 54.7348C47.6156 56.7304 50.4094 53.737 48.8129 51.7415C42.6267 44.5575 32.649 40.9655 23.2699 41.5642C20.6757 41.7637 20.6757 45.9544 23.2699 45.7548Z" fill="white"/>
<path d="M203.518 65.5282L172.433 65.321L163.937 83.7645C163.522 84.8006 162.486 85.4223 161.45 85.4223C161.243 85.4223 160.828 85.4223 160.414 85.4223C159.171 85.0079 158.342 83.5573 158.963 82.3139L184.453 18.6941C184.867 17.8652 185.903 17.2435 186.939 17.2435C188.183 17.2435 189.219 17.8652 189.426 18.6941L214.916 82.3139C215.537 83.5573 214.708 85.0079 213.465 85.4223C213.051 85.4223 212.843 85.4223 212.429 85.4223C211.393 85.4223 210.356 84.8006 209.942 83.7645L203.518 65.5282ZM173.677 60.7619H201.238L187.147 25.9472L173.677 60.7619Z" fill="white"/>
<path d="M275.842 19.5231C275.842 18.2797 276.878 17.2435 278.121 17.2435H278.329H313.351C314.801 17.2435 315.63 18.2797 315.63 19.5231C315.63 20.9737 314.594 22.0098 313.351 22.0098H280.608V49.157H309.413C310.657 49.157 311.693 50.1932 311.693 51.6438C311.693 52.8872 310.657 53.9233 309.413 53.9233H280.608V80.8632H313.351C314.801 80.8632 315.63 81.8994 315.63 83.35C315.63 84.5934 314.594 85.6295 313.351 85.6295H278.329H278.121H277.914C276.671 85.6295 275.842 84.5934 275.842 83.35V19.5231Z" fill="white" stroke="white" stroke-width="1.7653" stroke-miterlimit="10"/>
<path d="M233.981 22.217H213.258C212.015 22.217 210.979 21.1808 210.979 19.7302C210.979 18.4868 212.015 17.4507 213.258 17.4507H259.263C260.507 17.4507 261.543 18.4868 261.543 19.7302C261.543 21.1808 260.507 22.217 259.263 22.217H238.54V83.5572C238.54 84.8005 237.504 85.8367 236.261 85.8367C235.017 85.8367 233.981 84.8005 233.981 83.5572V22.217Z" fill="white" stroke="white" stroke-width="1.7653" stroke-miterlimit="10"/>
<path d="M360.806 16.4146C369.302 16.4146 376.97 19.3158 382.979 23.8748C384.015 24.7038 384.223 26.3616 383.394 27.3978C382.565 28.6411 381.114 28.6411 380.078 27.8122C374.69 23.6676 368.059 21.1808 360.806 21.1808C343.605 21.1808 329.928 34.6508 329.928 51.4365C329.928 67.8077 343.605 81.2776 360.806 81.2776C368.059 81.2776 374.69 78.9981 379.871 74.6463C381.114 73.8173 382.565 74.0246 383.394 75.268C384.43 76.0969 384.223 77.9619 383.186 78.7909C377.177 83.3499 369.509 86.2512 361.013 86.2512C341.326 86.2512 325.369 70.7089 325.369 51.6437C325.162 31.9568 341.119 16.6218 360.806 16.4146Z" fill="white" stroke="white" stroke-width="1.7653" stroke-miterlimit="10"/>
<path d="M440.589 54.5447H399.972V83.5569C399.972 84.8003 398.729 85.8365 397.071 85.8365C395.62 85.8365 394.377 84.8003 394.377 83.5569V20.9734C394.377 19.73 395.62 18.6938 397.071 18.6938C398.729 18.6938 399.972 19.73 399.972 20.9734V49.9856H440.589V20.9734C440.589 19.73 441.833 18.6938 443.283 18.6938C444.941 18.6938 446.185 19.73 446.185 20.9734V83.5569C446.185 84.8003 444.941 85.8365 443.283 85.8365C441.833 85.8365 440.589 84.8003 440.589 83.5569V54.5447Z" fill="white" stroke="white" stroke-width="1.7653" stroke-miterlimit="10"/>
<path d="M129.438 16C137.935 16 145.602 18.9012 151.612 23.4603C152.648 24.2892 152.855 25.9471 152.026 26.9832C151.198 28.2266 149.747 28.2266 148.711 27.3977C143.323 23.2531 136.691 20.7663 129.438 20.7663C112.238 20.7663 98.5611 34.2363 98.5611 51.0219C98.5611 67.3931 112.238 80.8631 129.438 80.8631C136.691 80.8631 143.323 78.5836 148.504 74.2317C149.747 73.4028 151.198 73.61 152.026 74.8534C153.063 75.6823 152.855 77.5474 151.819 78.3763C145.81 82.9354 138.142 85.8366 129.646 85.8366C109.959 85.8366 94.002 70.2944 94.002 51.2292C93.7948 31.5423 109.751 16.2072 129.438 16Z" fill="white"/>
</svg>
