<svg width="78" height="104" viewBox="0 0 78 104" fill="none" xmlns="http://www.w3.org/2000/svg">
<path d="M31.0517 66.1094C33.2559 66.1094 35.0428 64.3226 35.0428 62.1184C35.0428 59.9141 33.2559 58.1273 31.0517 58.1273C28.8474 58.1273 27.0605 59.9141 27.0605 62.1184C27.0605 64.3226 28.8474 66.1094 31.0517 66.1094Z" fill="white"/>
<path d="M28.2577 63.3157C27.4595 65.5108 26.4617 70.6992 24.6658 72.4952C26.4617 70.6992 24.4662 71.8965 22.6702 71.8965C20.8742 71.8965 18.8787 72.2957 17.0827 72.4952C15.4862 72.6948 14.4884 74.4908 15.8853 75.6881C18.8787 78.6814 21.872 81.6747 25.0649 84.6681C25.464 83.6703 25.8631 82.6725 26.2622 81.4752C21.872 82.0739 17.2822 82.473 12.892 83.0716C11.4951 83.2712 10.2978 85.0672 11.6947 86.2645C12.6924 87.2623 13.6902 88.2601 14.688 89.2578C15.8853 90.2556 17.0827 92.6503 17.0827 91.2534C17.4818 94.4463 13.6902 97.0405 15.8853 100.632C18.28 104.823 27.4595 104.624 31.2511 102.628C37.2377 99.2356 38.8342 90.0561 40.8297 84.269C42.4262 79.6792 43.0248 77.6836 47.8141 75.6881C53.0026 73.493 57.7919 72.2956 62.3817 68.7037C80.1421 55.1339 82.3372 26.5975 66.3728 10.6331C50.0093 -5.53086 21.4729 -2.73709 8.10268 15.4224C1.11825 24.8015 -1.07686 37.1739 1.91647 48.349C2.91425 51.5419 4.71024 54.3357 5.90757 57.5286C7.90312 63.5152 6.10713 66.5086 4.11158 71.697C2.71469 75.0894 1.51736 78.4819 0.120475 81.8743C-0.677745 84.0694 2.71469 85.0672 3.71247 82.8721C5.90757 77.2845 8.9009 71.4974 10.2978 65.7103C11.4951 59.9232 10.8965 59.125 8.9009 55.1339C4.9098 47.3513 3.1138 38.9699 4.9098 30.1895C11.2956 0.25624 54.9981 -7.72597 69.5657 20.6109C76.3505 33.9811 74.355 50.9432 63.7786 61.7192C58.9892 66.7081 53.4017 69.3023 46.8164 71.2979C43.6235 72.2956 42.0271 72.0961 40.0315 74.8899C37.4373 78.2823 36.4395 84.8676 35.0426 88.8587C33.2466 94.0472 32.2488 99.2356 24.8653 99.6347C18.8787 100.034 19.4773 95.2445 20.8742 91.0538C21.0738 90.4552 20.8742 89.6569 20.4751 89.2578C18.4795 87.2623 16.2844 85.2667 14.2889 83.4707C13.8898 84.4685 13.4907 85.4663 13.0916 86.6636C17.4818 86.065 22.0715 85.6658 26.4617 85.0672C27.8586 84.8676 29.056 83.0716 27.6591 81.8743C24.6658 78.881 21.6724 75.8876 18.4795 72.8943C18.0804 73.8921 17.6813 74.8899 17.2822 76.0872C20.2755 75.8876 23.4684 75.4885 26.4617 75.289C27.26 75.289 27.8586 74.6903 28.2577 73.8921C29.4551 70.6992 30.6524 67.5063 31.8497 64.3134C32.648 61.9188 29.2555 61.1206 28.2577 63.3157Z" fill="white"/>
<path d="M25.2647 23.8038C38.2358 21.01 51.4065 26.9967 59.3887 37.174C60.9851 39.3691 63.9784 36.3758 62.382 34.1806C53.402 22.806 38.6349 16.8193 24.267 19.8127C21.4732 20.4113 22.6705 24.4024 25.2647 23.8038Z" fill="white"/>
<path d="M24.8667 35.1784C35.2436 33.1829 46.0196 38.3713 53.004 45.7548C54.8 47.7504 57.7933 44.757 55.9973 42.7615C48.0151 34.1806 35.6427 28.7926 23.8689 30.9877C21.0752 31.5864 22.0729 35.5775 24.8667 35.1784Z" fill="white"/>
<path d="M23.2699 45.7548C31.6512 45.1562 40.4316 48.3491 45.8196 54.7348C47.6156 56.7304 50.4094 53.737 48.8129 51.7415C42.6267 44.5575 32.649 40.9655 23.2699 41.5642C20.6757 41.7637 20.6757 45.9544 23.2699 45.7548Z" fill="white"/>
</svg>
